<svg xmlns="http://www.w3.org/2000/svg" xmlns:xlink="http://www.w3.org/1999/xlink" viewBox="0 0 500 500"><defs><clipPath id="freepik--clip-path--inject-8"><polygon points="285.05 464.34 175.08 464.34 168.59 360.47 278.57 360.47 285.05 464.34" style="fill:#fff;stroke:#263238;stroke-linecap:round;stroke-linejoin:round"></polygon></clipPath><clipPath id="freepik--clip-path-2--inject-8"><path d="M422.11,420s2.92-25.4,12.62-47.42,1-26.73-4.23-21.23-10.89,26.16-10.89,26.16,2.58-21.62,1.53-33.15c-1.53-16.88-4.16-30.06-11.94-28-9,2.41,3.78,35,.41,69.15,0,0-11.85-18.83-16-34.93s-14.87-9.12-11.15,5.28,18.13,22.45,23.7,38.07c0,0-18.55-17.16-24.47-10.4-3.34,3.81,5.11,6.55,8.77,8.31,17.76,8.5,22.31,29.77,22.31,29.77Z" style="fill:#FFC100;stroke:#263238;stroke-linecap:round;stroke-linejoin:round"></path></clipPath><clipPath id="freepik--clip-path-3--inject-8"><path d="M223.86,415s-9.73,4.69-17.64,3l-3-5.23s-7.48-6.2-14.92-18.44a99.71,99.71,0,0,1-5.6-10.64c-8.71-19.28-17.33-44-17.33-44l-19.64-47.74-1-2.51-7.65-22.35,46.13-24s6.22,31.84,5.82,40,22,77.84,24.44,86.15,10.38,32.36,8.4,40.11Z" style="fill:#FFC100;stroke:#263238;stroke-linecap:round;stroke-linejoin:round"></path></clipPath></defs><g id="freepik--background-simple--inject-8"><path d="M324.18,40.36S251.45,14.49,180.05,55.67,72.62,178.59,41.69,244.06,28.56,376.14,83.06,406.51s91.56-14.4,168-16.58,97,8.75,160.47-34.44,74.92-145.2,24.87-220.68S324.18,40.36,324.18,40.36Z" style="fill:#FFC100"></path><path d="M324.18,40.36S251.45,14.49,180.05,55.67,72.62,178.59,41.69,244.06,28.56,376.14,83.06,406.51s91.56-14.4,168-16.58,97,8.75,160.47-34.44,74.92-145.2,24.87-220.68S324.18,40.36,324.18,40.36Z" style="fill:#fff;opacity:0.7000000000000001"></path></g><g id="freepik--Wall--inject-8"><line x1="243.84" y1="464.52" x2="243.84" y2="30.14" style="fill:none;stroke:#263238;stroke-linecap:round;stroke-linejoin:round"></line><rect x="201.87" y="71.29" width="24.95" height="10.02" style="fill:none;stroke:#263238;stroke-linecap:round;stroke-linejoin:round"></rect><rect x="181.89" y="82.75" width="24.95" height="10.02" style="fill:none;stroke:#263238;stroke-linecap:round;stroke-linejoin:round"></rect><rect x="124.62" y="147.73" width="24.95" height="10.02" style="fill:none;stroke:#263238;stroke-linecap:round;stroke-linejoin:round"></rect><rect x="137.09" y="160.96" width="24.95" height="10.02" style="fill:none;stroke:#263238;stroke-linecap:round;stroke-linejoin:round"></rect><rect x="214.35" y="241.85" width="24.95" height="10.02" style="fill:none;stroke:#263238;stroke-linecap:round;stroke-linejoin:round"></rect><rect x="200.68" y="254.32" width="24.95" height="10.02" style="fill:none;stroke:#263238;stroke-linecap:round;stroke-linejoin:round"></rect><rect x="55.36" y="266.23" width="24.95" height="10.02" style="fill:none;stroke:#263238;stroke-linecap:round;stroke-linejoin:round"></rect><rect x="68.54" y="279.57" width="24.95" height="10.02" style="fill:none;stroke:#263238;stroke-linecap:round;stroke-linejoin:round"></rect><rect x="206.47" y="331.94" width="24.95" height="10.02" style="fill:none;stroke:#263238;stroke-linecap:round;stroke-linejoin:round"></rect><rect x="186.39" y="241.85" width="24.95" height="10.02" style="fill:none;stroke:#263238;stroke-linecap:round;stroke-linejoin:round"></rect><path d="M92.75,212.73c24.25.27,49.25.27,72.76,0" style="fill:none;stroke:#263238;stroke-linecap:round;stroke-linejoin:round"></path><path d="M82.75,212.73h6.1" style="fill:none;stroke:#263238;stroke-linecap:round;stroke-linejoin:round"></path><path d="M239,122.77h4.82" style="fill:none;stroke:#263238;stroke-linecap:round;stroke-linejoin:round"></path><line x1="221.79" y1="122.77" x2="235.72" y2="122.89" style="fill:none;stroke:#263238;stroke-linecap:round;stroke-linejoin:round"></line><path d="M207.58,316.17h-3.44" style="fill:none;stroke:#263238;stroke-linecap:round;stroke-linejoin:round"></path><path d="M243.84,316.17H211.49" style="fill:none;stroke:#263238;stroke-linecap:round;stroke-linejoin:round"></path></g><g id="freepik--Floor--inject-8"><line x1="49.42" y1="463.95" x2="456.1" y2="463.95" style="fill:none;stroke:#263238;stroke-linecap:round;stroke-linejoin:round"></line></g><g id="freepik--canvas-2--inject-8"><polygon points="281.05 464.34 171.08 464.34 164.59 360.47 274.57 360.47 281.05 464.34" style="fill:#bfbfbf;stroke:#263238;stroke-miterlimit:10"></polygon><polygon points="285.05 464.34 175.08 464.34 168.59 360.47 278.57 360.47 285.05 464.34" style="fill:#fff"></polygon><g style="clip-path:url(#freepik--clip-path--inject-8)"><path d="M180.47,384.15s7.48-13,20.89-11.87,15.75,13.72,22.5,8.84,26.13-7.43,33.65-7.54,7.51.55,9.49,7.54-4.75,16.08,0,21.62,9.06,14.8.37,24-8.66,22.8-17.37,23.92-25.73-10.84-34.82-5.45-26.51,13.19-24.93,5.53,4.37-23.2-3.15-28.49S175.49,390.14,180.47,384.15Z" style="fill:#263238"></path><path d="M180.47,384.15s7.48-13,20.89-11.87,15.75,13.72,22.5,8.84,26.13-7.43,33.65-7.54,7.51.55,9.49,7.54-4.75,16.08,0,21.62,9.06,14.8.37,24-8.66,22.8-17.37,23.92-25.73-10.84-34.82-5.45-26.51,13.19-24.93,5.53,4.37-23.2-3.15-28.49S175.49,390.14,180.47,384.15Z" style="fill:#fff;opacity:0.8"></path><path d="M233.51,395.62c-9.5-6.64-7.77,5.13-14.57,8.37s-11.36,3.82-15.67,6,1.44,12.45,4.76,20.12-2.43,14.57,5.46,18,19,.56,25.2-2.89,16.18-6.59,14.6-18.47-14-21.38-13.45-26.12S236.23,397.53,233.51,395.62Z" style="fill:#fff;opacity:0.4"></path><path d="M266.69,389.23c-9.28-6.15-5.5,2.66-10.9,4.39s-17.27-.11-9.89,7.54,10.26,12.93,9.22,15.3,3.44,5.27,4,9.23-4.48,9.51,2.64,9.5,9.23-1.61,7.64-13.73,2.38-12.39,1.85-17.92S271.31,392.29,266.69,389.23Z" style="fill:#fff;opacity:0.4"></path><path d="M209.24,398c5.1.92,8.88-4,12.35-7.65s8.22-2.64,13.5,0,11.08,0,12-3.27,2.28-9.44-3.54-13.5-11.63-7.53-17.43-6.19-4.22,16.89-14.77,11.88S197.64,395.89,209.24,398Z" style="fill:#fff;opacity:0.4"></path><path d="M175.75,404.59c-.27-8.17,1.32-19,10-19.78s8.18,13,14.24,14.27,5.8,7.88-1,8.68-4.49,10.57,0,14.51-2,19.88-8.92,16.66S176.54,428.85,175.75,404.59Z" style="fill:#fff;opacity:0.4"></path><path d="M192.89,399.08c-4.62-8.66,2.07-16.33,11.45-12s14.84.92,17.25-1.33,15.3,12.25,2.27,22,1.78,20-10.37,25.05-17.9,5.54-21.23-9.23S199,410.45,192.89,399.08Z" style="fill:#fff;opacity:0.4"></path><path d="M236.52,425.69c-5.06-12.46,8.06-22.68,18.35-16.08s-2.42,10.45,5.54,17.15,13.45,10.3,2.9,21.36-29.5,12.91-35.72,3.68S240.58,435.71,236.52,425.69Z" style="fill:#fff;opacity:0.4"></path><path d="M183.22,443.62c-1.08-10,.7-21.34,15.74-21.35s27.12,4.32,24.9,16.66,6.27,15.77-10.37,18.8S185.42,463.93,183.22,443.62Z" style="fill:#fff;opacity:0.4"></path><path d="M184.45,375.05s8.49-5.21,14.24,0,11,15.61,20.25,12,13-7.87,26.43-8.89,9.5-6.57,15.56-1.82S258,390,263.31,396.75s11.44.49,8-14.3-7.43-14.87-16.67-15.35-29.27,15.6-34.81,8.48-18-10.9-28.4-8.48S178,375.78,184.45,375.05Z" style="fill:#fff;opacity:0.4"></path><polygon points="213.45 464.34 171.08 464.34 164.59 360.47 178.84 360.47 213.45 464.34" style="fill-opacity:0.2"></polygon></g><polygon points="285.05 464.34 175.08 464.34 168.59 360.47 278.57 360.47 285.05 464.34" style="fill:none;stroke:#263238;stroke-linecap:round;stroke-linejoin:round"></polygon><polygon points="74.87 464.23 184.85 464.23 166.57 300.77 56.59 300.77 74.87 464.23" style="fill:#bfbfbf;stroke:#263238;stroke-miterlimit:10"></polygon><polyline points="64.86 338.96 78.87 464.23 188.85 464.23 170.57 300.77 60.59 300.77 61.99 313.32" style="fill:#fff;stroke:#263238;stroke-linecap:round;stroke-linejoin:round"></polyline><line x1="63.4" y1="325.86" x2="64.07" y2="331.94" style="fill:#fff;stroke:#263238;stroke-linecap:round;stroke-linejoin:round"></line><path d="M81.29,340.68c3.29-9.87,12.26-9.9,20.57-19.19s5.54-13.64,21-7.31,13.9,10.18,21.19,17.75,16.89,7,13.08,16.58,5.25,20.26,9.23,27,3.14,18.19,0,25.32,10.66,19.78,0,31.25S137.47,443.67,125.8,445s-21.57-1.84-27.11-11.34-17.4,7.12-11.87-14.24,7.52-40.9.8-49.13S78.91,347.8,81.29,340.68Z" style="fill:#FFC100"></path><path d="M81.29,340.68c3.29-9.87,12.26-9.9,20.57-19.19s5.54-13.64,21-7.31,13.9,10.18,21.19,17.75,16.89,7,13.08,16.58,5.25,20.26,9.23,27,3.14,18.19,0,25.32,10.66,19.78,0,31.25S137.47,443.67,125.8,445s-21.57-1.84-27.11-11.34-17.4,7.12-11.87-14.24,7.52-40.9.8-49.13S78.91,347.8,81.29,340.68Z" style="fill:#fff;opacity:0.6000000000000001"></path><polygon points="141.64 309.69 82.6 382.5 84.98 386.18 153.29 314.97 141.64 309.69" style="fill:#fff;opacity:0.6000000000000001"></polygon><polygon points="155.11 328.9 120.72 372.2 129.81 387.23 147.75 367.45 151.7 372.99 123.22 405.69 132.19 418.35 162.25 376.68 153.29 362.44 162.25 337.91 155.11 328.9" style="fill:#fff;opacity:0.6000000000000001"></polygon><path d="M140.79,357.78a20.29,20.29,0,0,0-8-6.78c-2.91-1.38-6.24-2.12-8.63-4.29-3.32-3-3.93-8.08-3.28-12.53.38-2.64,1.12-5.32.6-7.94s-2.91-5.14-5.53-4.63a5.86,5.86,0,0,0-2.53,1.37,26.79,26.79,0,0,0-5.13,6.53c-4.79,7.57-11.46,13.77-16.6,21.23a74.22,74.22,0,0,0-6.84,11.67,45.72,45.72,0,0,0-2.06,31.13A16.51,16.51,0,0,1,94,390a2.6,2.6,0,0,1,1.84.67,2.32,2.32,0,0,1,.46,1.36c.21,2.42-.81,4.76-1.38,7.12a19.51,19.51,0,0,0-.27,7.76,8.62,8.62,0,0,0,1.72,4.22,7.23,7.23,0,0,0,6.43,2.08,18.19,18.19,0,0,0,6.51-2.61,10.44,10.44,0,0,0,4.35-3.88,14.75,14.75,0,0,0,1-4.95c.8-6.23,4.11-11.92,8.28-16.62s9.22-8.53,14.18-12.39c2.42-1.89,5-4,5.69-7C143.54,363,142.4,360.12,140.79,357.78Z" style="fill:#fff;opacity:0.2"></path><polygon points="86.56 403.32 112.04 381.17 119.26 421.51 102.91 438.98 97.77 432.36 106.87 416.77 102.83 413.25 93.94 421.51 86.56 403.32" style="fill:#fff;opacity:0.2"></polygon><circle cx="141.64" cy="430.19" r="20.54" transform="translate(-262.71 226.15) rotate(-45)" style="fill:#fff;opacity:0.2"></circle><polygon points="145.11 421.51 119.26 453.69 123.22 457.78 149.33 425.48 145.11 421.51" style="fill:#fff;opacity:0.2"></polygon><polygon points="172.43 407.8 147.75 448.69 175.85 453.96 172.43 407.8" style="fill:#fff;opacity:0.2"></polygon><polygon points="80.32 311.19 115.83 307.85 89.46 341.87 80.32 311.19" style="fill:#fff;opacity:0.2"></polygon></g><g id="freepik--canvas-1--inject-8"><polygon points="361.94 217.4 403.75 464.23 411.9 464.23 370.1 217.4 361.94 217.4" style="fill:#757575;stroke:#263238;stroke-linecap:round;stroke-linejoin:round"></polygon><polygon points="407.82 464.23 403.75 464.23 361.94 217.4 366.02 217.4 407.82 464.23" style="fill:#999;stroke:#263238;stroke-linecap:round;stroke-linejoin:round"></polygon><polygon points="381.9 123.19 373.75 123.19 349.4 463.95 357.55 463.95 381.9 123.19" style="fill:#757575;stroke:#263238;stroke-linecap:round;stroke-linejoin:round"></polygon><polygon points="351.9 123.19 343.75 123.19 285.99 464.23 294.14 464.23 351.9 123.19" style="fill:#757575;stroke:#263238;stroke-linecap:round;stroke-linejoin:round"></polygon><polygon points="347.82 123.19 343.75 123.19 285.99 464.23 290.07 464.23 347.82 123.19" style="fill:#999;stroke:#263238;stroke-linecap:round;stroke-linejoin:round"></polygon><polygon points="377.82 123.19 373.75 123.19 349.4 463.95 353.47 463.95 377.82 123.19" style="fill:#999;stroke:#263238;stroke-linecap:round;stroke-linejoin:round"></polygon><polygon points="398.71 303.41 288.74 303.41 307.02 139.95 416.99 139.95 398.71 303.41" style="fill:#bfbfbf;stroke:#263238;stroke-miterlimit:10"></polygon><polyline points="408.72 178.13 394.71 303.41 284.74 303.41 303.02 139.95 412.99 139.95 411.59 152.5" style="fill:#fff;stroke:#263238;stroke-linecap:round;stroke-linejoin:round"></polyline><line x1="410.19" y1="165.04" x2="409.51" y2="171.12" style="fill:#fff;stroke:#263238;stroke-linecap:round;stroke-linejoin:round"></line><path d="M304.38,189c2.81-8.52,10.09-15.45,11.22-24.38s2.64-13.89,11.14-15.15,14.74,13.76,26.62,7.09S381,140.33,387,154.68s5.87,19,11.34,21.06,4.27,25.06-3.33,27.87-9.08,15.43-4.17,24.33,3.95,25.24-2.59,32.67,1.14,14.25-4.73,24.85-28,13.1-43.29,9.17-17.13-18.34-26.35-20.27S298.23,260.3,298.93,249s9.35-17,8.65-29.71S301.57,197.54,304.38,189Z" style="fill:#FFC100"></path><path d="M304.38,189c2.81-8.52,10.09-15.45,11.22-24.38s2.64-13.89,11.14-15.15,14.74,13.76,26.62,7.09S381,140.33,387,154.68s5.87,19,11.34,21.06,4.27,25.06-3.33,27.87-9.08,15.43-4.17,24.33,3.95,25.24-2.59,32.67,1.14,14.25-4.73,24.85-28,13.1-43.29,9.17-17.13-18.34-26.35-20.27S298.23,260.3,298.93,249s9.35-17,8.65-29.71S301.57,197.54,304.38,189Z" style="fill:#fff;opacity:0.2"></path><path d="M396.38,166.94c.19-4.72-4.54-8-8.68-10.23l-1.69-.92a14.23,14.23,0,0,0-2.95-1.34c-5.61-1.62-10.67,3.52-16.13,5.59a16.44,16.44,0,0,1-18.82-5.91c-2.06-3-4.27-7.38-7.85-6.6-3.25.71-4.37,5.43-7.62,6.09-3,.6-5.86-2.6-8.73-1.66-1,.32-1.75,1.08-2.72,1.42-2.07.74-4.62-.56-6.47.63s-1.66,3.69-1.37,5.76c.59,4.1,1.23,7-.09,10.89-1.55,4.55-3.67,8.83-2,13.73.66,2,1.88,4,1.27,5.93a25.22,25.22,0,0,1-1.27,2.48c-1.21,2.76.41,5.85,1,8.81.65,3.4-.12,6.9-.9,10.28a14.83,14.83,0,0,1-2.1,5.6,42.68,42.68,0,0,1-3.47,3.52,11.32,11.32,0,0,0-2,11.83c2,4.65,7.2,7.89,7.65,12.94.27,3.08-1.39,6.05-3.59,8.21s-4.94,3.68-7.51,5.4a6.91,6.91,0,0,0-2.82,2.9c-1.51,3.76,3.58,7.29,3.33,11.35-.14,2.24-1.94,4.23-1.67,6.46.28,2.41,2.77,3.86,5,4.73,6.76,2.63,14.49,3.59,21.23.91,5.11-2,10-6.13,15.39-5,4.57.94,8.05,5.53,12.72,5.45,5.12-.09,8.49-5.72,13.46-6.95-1.56-1.42-1-4.22.63-5.53s4-1.43,6.05-1.1c2.26.36,4.84,1.1,6.63-.33,2.43-1.92,1.16-5.72.26-8.69a23.28,23.28,0,0,1,3.94-20.79c1.38-1.75,3.12-3.72,2.56-5.87-.3-1.12-1.19-2-1.52-3.11-1.07-3.53,3.69-6.14,4.4-9.75.43-2.16-.66-4.3-1.72-6.23L382.84,208c-1.84-3.35-3.72-7.33-2.18-10.83,2.43-5.49,11.61-5.88,13-11.71.7-2.86-.92-5.81-.64-8.74C393.38,173.24,396.24,170.39,396.38,166.94Z" style="fill:#FFC100"></path><polygon points="340.1 217.82 345.38 253.13 380.23 239.41 373 206.28 340.1 217.82" style="fill:#fff;opacity:0.2"></polygon><polygon points="353.14 223.96 388.78 246.19 349.96 271.24 353.14 223.96" style="fill:#fff;opacity:0.6000000000000001"></polygon><rect x="335.75" y="232.5" width="5.8" height="53.67" transform="translate(10.12 -12.7) rotate(2.18)" style="fill:#fff;opacity:0.4"></rect><circle cx="378.78" cy="170.27" r="14.22" transform="translate(172.7 530.82) rotate(-84.45)" style="fill:#fff;opacity:0.2"></circle><polygon points="307.03 278.85 307.81 258.44 318.02 253.67 321.22 231.81 312.73 226.28 316.72 187.11 334.13 182.19 330.14 220.94 346.29 229.21 346.42 259.01 329.37 264.66 328.29 292.95 307.03 278.85" style="fill:#fff;opacity:0.2"></polygon><polygon points="313.93 167.8 350.3 171.11 346.05 164.4 313.93 167.8" style="fill:#fff;opacity:0.6000000000000001"></polygon><polygon points="349.75 185.73 364.04 183.94 371.99 190 349.75 185.73" style="fill:#fff;opacity:0.4"></polygon><polygon points="309.99 200.27 345.33 195.77 349.75 210.28 336.89 214.23 340.1 226.04 323.18 229.7 309.99 200.27" style="fill:#fff;opacity:0.6000000000000001"></polygon></g><g id="freepik--Plant--inject-8"><path d="M422.11,420s2.92-25.4,12.62-47.42,1-26.73-4.23-21.23-10.89,26.16-10.89,26.16,2.58-21.62,1.53-33.15c-1.53-16.88-4.16-30.06-11.94-28-9,2.41,3.78,35,.41,69.15,0,0-11.85-18.83-16-34.93s-14.87-9.12-11.15,5.28,18.13,22.45,23.7,38.07c0,0-18.55-17.16-24.47-10.4-3.34,3.81,5.11,6.55,8.77,8.31,17.76,8.5,22.31,29.77,22.31,29.77Z" style="fill:#FFC100"></path><g style="clip-path:url(#freepik--clip-path-2--inject-8)"><path d="M422.11,420s2.92-25.4,12.62-47.42,1-26.73-4.23-21.23-10.89,26.16-10.89,26.16,2.58-21.62,1.53-33.15c-1.53-16.88-4.16-30.06-11.94-28-9,2.41,3.78,35,.41,69.15,0,0-11.85-18.83-16-34.93s-14.87-9.12-11.15,5.28,18.13,22.45,23.7,38.07c0,0-18.55-17.16-24.47-10.4-3.34,3.81,5.11,6.55,8.77,8.31,17.76,8.5,22.31,29.77,22.31,29.77Z" style="fill-opacity:0.7000000000000001;opacity:0.2"></path></g><path d="M422.11,420s2.92-25.4,12.62-47.42,1-26.73-4.23-21.23-10.89,26.16-10.89,26.16,2.58-21.62,1.53-33.15c-1.53-16.88-4.16-30.06-11.94-28-9,2.41,3.78,35,.41,69.15,0,0-11.85-18.83-16-34.93s-14.87-9.12-11.15,5.28,18.13,22.45,23.7,38.07c0,0-18.55-17.16-24.47-10.4-3.34,3.81,5.11,6.55,8.77,8.31,17.76,8.5,22.31,29.77,22.31,29.77Z" style="fill:none;stroke:#263238;stroke-linecap:round;stroke-linejoin:round"></path><path d="M411.32,414.53s1.47-26.58-8.23-48.6-1-23.74,4.15-18.24,9.15,34,9.15,34,4.56-25.54,2.49-43.2-1.93-27.61,5.35-27.61c9.29,0,7.11,43.23-.41,69.14,0,0,11.85-18.82,16-34.92S454.73,336,451,350.41s-18.12,22.44-23.7,38.07c0,0,18.55-17.16,24.47-10.4,3.34,3.81-5.11,6.55-8.77,8.3-17.76,8.51-22.31,29.78-22.31,29.78Z" style="fill:#FFC100;stroke:#263238;stroke-linecap:round;stroke-linejoin:round"></path><path d="M424.81,354a107.76,107.76,0,0,0,0-20" style="fill:none;stroke:#263238;stroke-linecap:round;stroke-linejoin:round"></path><path d="M410.38,371c4.22,12.71,6,26.16,6.32,39.51a454.64,454.64,0,0,0,7.91-53.81" style="fill:none;stroke:#263238;stroke-linecap:round;stroke-linejoin:round"></path><path d="M408,364.82c.48,1.08.92,2.18,1.34,3.28" style="fill:none;stroke:#263238;stroke-linecap:round;stroke-linejoin:round"></path><path d="M438.22,364.51c-4.85,8.76-10.2,18.22-17.77,24.94" style="fill:none;stroke:#263238;stroke-linecap:round;stroke-linejoin:round"></path><path d="M443.6,354.14c-1.29,2.71-2.68,5.38-4.1,8" style="fill:none;stroke:#263238;stroke-linecap:round;stroke-linejoin:round"></path><path d="M427.3,393.5c-3.3,2.73-6.83,5.68-9.15,9.35" style="fill:none;stroke:#263238;stroke-linecap:round;stroke-linejoin:round"></path><path d="M443.6,381.64c-4.92,3.19-9.72,6.61-14.32,10.26" style="fill:none;stroke:#263238;stroke-linecap:round;stroke-linejoin:round"></path><polygon points="444.93 404.11 388.02 404.11 392.42 464.34 440.53 464.34 444.93 404.11" style="fill:#263238"></polygon></g><g id="freepik--Character--inject-8"><polygon points="199.36 400.63 224.51 453.66 236.52 453.66 216.53 393.64 199.36 400.63" style="fill:#fff;stroke:#263238;stroke-linecap:round;stroke-linejoin:round"></polygon><path d="M223.86,415s-9.73,4.69-17.64,3l-3-5.23s-7.48-6.2-14.92-18.44a99.71,99.71,0,0,1-5.6-10.64c-8.71-19.28-17.33-44-17.33-44l-19.64-47.74-1-2.51-7.65-22.35,46.13-24s6.22,31.84,5.82,40,22,77.84,24.44,86.15,10.38,32.36,8.4,40.11Z" style="fill:#FFC100"></path><g style="clip-path:url(#freepik--clip-path-3--inject-8)"><path d="M188.85,393.64c-.17.24-.33.46-.51.68a99.71,99.71,0,0,1-5.6-10.64c-8.71-19.28-17.33-44-17.33-44l-19.64-47.74,17.58-15.69,5.16.82s3.45,5.4-1.48,8.5,3.44,15.28,7.6,24.12-3,17.42-3,17.42,6.59,13.93,14.73,20.83c0,0-6.44-1.71-3.17,5S195.65,383.87,188.85,393.64Z" style="fill-opacity:0.7000000000000001;opacity:0.2"></path></g><path d="M223.86,415s-9.73,4.69-17.64,3l-3-5.23s-7.48-6.2-14.92-18.44a99.71,99.71,0,0,1-5.6-10.64c-8.71-19.28-17.33-44-17.33-44l-19.64-47.74-1-2.51-7.65-22.35,46.13-24s6.22,31.84,5.82,40,22,77.84,24.44,86.15,10.38,32.36,8.4,40.11Z" style="fill:none;stroke:#263238;stroke-linecap:round;stroke-linejoin:round"></path><path d="M208,412.16s7.7.38,10.91-2.17" style="fill:none;stroke:#263238;stroke-linecap:round;stroke-linejoin:round"></path><path d="M222.53,464.23c-2.5-1.12-.2-10.57-.2-10.57s-3.37-2.26,0-4.61a9.38,9.38,0,0,0,9.57,1.55s.66-6.33,4.62-5.51c0,0,1,4,3.33,6.3,6.29,6.2,14.42,6.91,15.78,9.9a6.49,6.49,0,0,1-.09,2.94Z" style="fill:#263238"></path><path d="M217.44,161l28.7,43.11,39-30.8,9,4.52s-36.66,44.54-48.79,46-41.21-40.5-41.21-40.5" style="fill:#fff;stroke:#263238;stroke-linecap:round;stroke-linejoin:round"></path><path d="M213.15,154.37a29.74,29.74,0,0,1,14,12.45C232.43,176.05,238,184,238,184s-12.77,14-23,17.93l-12.2-4.22Z" style="fill:#263238"></path><polygon points="144.32 403.26 158.16 453.66 170.07 453.66 164.91 395.97 144.32 403.26" style="fill:#fff;stroke:#263238;stroke-linecap:round;stroke-linejoin:round"></polygon><path d="M183.22,258.6l-52.59-25.71s-9.5,28.06-9,51.68,8.36,56,9,70.93-.31,43.06,16,62.49l2,6.24s15.06,2.11,19.8,0l-.79-5.88s6.49-13.11,1.6-34.21S162,285.77,162,285.77s5.87-5,8.24-10.09" style="fill:#FFC100;stroke:#263238;stroke-linecap:round;stroke-linejoin:round"></path><path d="M133.26,226.2c3.17-17.85,7.3-60.07,21.54-69.71s38.68-10.46,48.54-6.56c19.33,7.66,19.63,11.26,16.47,25.85s-23.94,59.4-23.94,59.4l-4.81,23.73s-18.08,13.78-38.81,8C127.94,260.14,124,244.78,124,244.78Z" style="fill:#263238"></path><path d="M205.53,140.1a8.11,8.11,0,0,1-1.39,1.79,17.35,17.35,0,0,0-1.2,1.29,11.06,11.06,0,0,0-2.71,5.24,6.86,6.86,0,0,0,.16,3,7.54,7.54,0,0,0,2.38,3.62s.23,6.36-7.66,7.13c-9.49.92-14.82-9-14.82-9,11.82-16.23,2.93-23.09,2.93-23.09C194.69,123.77,209.88,132.4,205.53,140.1Z" style="fill:#fff;stroke:#263238;stroke-linecap:round;stroke-linejoin:round"></path><path d="M202.94,143.18a11.06,11.06,0,0,0-2.71,5.24c-6.35-3.13-6.75-7.72-6.75-7.72a34.74,34.74,0,0,1,7.85,2.22A4.7,4.7,0,0,0,202.94,143.18Z" style="fill:#263238"></path><path d="M181.43,122.77c-4.3-18.42,4.6-26.41,10.44-28.82,9.34-3.87,21.49,2.21,24.26,12.45s.27,12.56.4,16.75c.09,2.94,1.9,4.38-.09,11.75-1.32,4.87-3.53,12.76-11.83,11.27a29,29,0,0,1-11.32-5.44" style="fill:#fff;stroke:#263238;stroke-linecap:round;stroke-linejoin:round"></path><path d="M180.29,95.35s1.14-8.53,9.74-8.53c3.84,0,7.73,7,13.26,4.51s11-2.19,12.65-.2c3.57,4.22-.46,8.31,3.76,9.24s5.57,5.08,3.26,8,.37,6-.09,8.1a6.35,6.35,0,0,1-6.28,5.23s2.32-12.79-1.23-14.89c-3.07-1.83-5.63.8-5.63.8-4.73-2.73-10.09-.59-11.59,1.32-2.76,3.54-.89,7.66-3.76,9.89-1,.82-4,1.34-3.59,4s-2,4.46-2,4.46L187,132.76s2.09,5.65-1.59,10c-1.13,1.35-3.22,1.51-7-.9a4.19,4.19,0,0,0,1.93-5.51c-.93-2.12-3.52-.36-5.49-3-2.26-3,0-7.51-.32-10.12-.27-2.09-2.72-.72-4.82-5.18-.58-1.22-1-7.5,2.77-11.19C172.43,106.88,168.49,98.44,180.29,95.35Z" style="fill:#263238"></path><path d="M191.87,126s-3.38-6.3-6.91-4.76-1.08,9.06,2,11.52,4.92,0,4.92,0" style="fill:#fff;stroke:#263238;stroke-linecap:round;stroke-linejoin:round"></path><path d="M205.69,116.79s-3.46-1.29-5.31,2.77" style="fill:none;stroke:#263238;stroke-linecap:round;stroke-linejoin:round"></path><path d="M217.44,114.64s-3.61-.78-5.15,1.83" style="fill:none;stroke:#263238;stroke-linecap:round;stroke-linejoin:round"></path><path d="M211.37,121.7s-.31,3.22.92,3.84,3.15-.69,2.57,1.88-3.53,2.72-3.53,2.72" style="fill:none;stroke:#263238;stroke-linecap:round;stroke-linejoin:round"></path><path d="M205,122.55c0,.85-.38,1.55-.86,1.55s-.85-.7-.85-1.55.38-1.55.85-1.55S205,121.69,205,122.55Z" style="fill:#263238;stroke:#263238;stroke-linecap:round;stroke-linejoin:round"></path><path d="M214.87,121.7c0,.86-.39,1.55-.86,1.55s-.86-.69-.86-1.55.39-1.55.86-1.55S214.87,120.84,214.87,121.7Z" style="fill:#263238;stroke:#263238;stroke-linecap:round;stroke-linejoin:round"></path><path d="M205,132.67s3.77,2.09,7.29,1.18" style="fill:none;stroke:#263238;stroke-linecap:round;stroke-linejoin:round"></path><path d="M205.69,133.37s.4,2.73,3,3a2.35,2.35,0,0,0,2.68-2.28" style="fill:none;stroke:#263238;stroke-linecap:round;stroke-linejoin:round"></path><path d="M209.73,107.61a4.64,4.64,0,0,0-5.59-1.27c-3.33,1.61-2.24,5.26-2.34,7.54s-1.78,1.37-3.46,2.71-.59,3.56-.59,3.56-3.52-.59-1.07-3.68,4.43-2.49,2.85-5.36a5,5,0,0,1,3.24-7.42C206.35,102.8,209.64,104.81,209.73,107.61Z" style="fill:#263238"></path><path d="M154.94,464.23s-1.23-4.71.21-6.46c2.59-3.13-.32-5.76,2.29-6.85l1.09,1.26c.21-1.28-.4-5.18,4.43-5.69,5.83-.62,5.94,3.63,6.26,5l-.1-1.95c2.49,0,1.2,2.48,5,6.55a10.71,10.71,0,0,1,2.72,8.12Z" style="fill:#263238"></path><path d="M222.79,175.79c-2.06,8.28-5.5,16.69-11.46,23" style="fill:none;stroke:#fff;stroke-linecap:round;stroke-linejoin:round"></path><path d="M224.08,169.2c-.17,1.29-.4,2.57-.66,3.84" style="fill:none;stroke:#fff;stroke-linecap:round;stroke-linejoin:round"></path><path d="M161.8,248.47a20.37,20.37,0,0,1-4.54-.42" style="fill:none;stroke:#fff;stroke-linecap:round;stroke-linejoin:round"></path><path d="M193.3,235.4c-8.32,6.14-18.54,11.77-28.94,12.91" style="fill:none;stroke:#fff;stroke-linecap:round;stroke-linejoin:round"></path><path d="M135.11,226.16s4.48,1.13,11.47-2.33" style="fill:none;stroke:#fff;stroke-linecap:round;stroke-linejoin:round"></path><path d="M192.05,165.05a17.1,17.1,0,0,0,4.63-.12" style="fill:none;stroke:#fff;stroke-linecap:round;stroke-linejoin:round"></path><path d="M177,154.37c2.7,4.7,7.24,8.77,12.52,10.21" style="fill:none;stroke:#fff;stroke-linecap:round;stroke-linejoin:round"></path><path d="M135.11,342.63s15.47,22,23.7,24.49" style="fill:none;stroke:#263238;stroke-linecap:round;stroke-linejoin:round"></path><path d="M150.46,418.35s10.1,1.83,15,0" style="fill:none;stroke:#263238;stroke-linecap:round;stroke-linejoin:round"></path><path d="M170.51,332.51c8.18,8.62,16.75,17.71,26.78,24.2a19.69,19.69,0,0,0,6.39,3" style="fill:none;stroke:#263238;stroke-linecap:round;stroke-linejoin:round"></path><path d="M165.51,327.11c1,1.12,2,2.22,3.05,3.32" style="fill:none;stroke:#263238;stroke-linecap:round;stroke-linejoin:round"></path><path d="M172.66,284.58a18.46,18.46,0,0,1-8.3,2" style="fill:none;stroke:#263238;stroke-linecap:round;stroke-linejoin:round"></path><path d="M159.53,286.56s-7.28-8.9-14.2-9.49" style="fill:none;stroke:#263238;stroke-linecap:round;stroke-linejoin:round"></path><path d="M152.43,191.67s-24.64,26.64-30.7,25.64-9.2-10.83-7.87-13.55,23.53-28.52,23.53-28.52Z" style="fill:#fff;stroke:#263238;stroke-linecap:round;stroke-linejoin:round"></path><path d="M161.81,152.74S147.26,156.8,140,167.62s-10.69,13.45-10.69,13.45,7.38,13.71,14,17.93,20.57-3.43,20.57-3.43Z" style="fill:#263238"></path><path d="M160.36,164a9.85,9.85,0,0,0-3.1-3.32" style="fill:none;stroke:#fff;stroke-linecap:round;stroke-linejoin:round"></path><path d="M144.6,200.27a6.45,6.45,0,0,0,2.58,1.07c4-5,11.82-4.34,13.82-10.34,4-7,3-16,.6-24.37" style="fill:none;stroke:#fff;stroke-linecap:round;stroke-linejoin:round"></path><path d="M121.73,217.31c-6.93-1.17-14.31-1.6-18.53-27.89L99,163.13l9.49-2.84s11.83,28.81,15.54,36S125.62,208,125.62,208" style="fill:#fff;stroke:#263238;stroke-linecap:round;stroke-linejoin:round"></path><path d="M284.74,173.63s7-7.71,10.45-9.67c3.26-1.88,6.53-3.14,7.22-3,1.74.39,6.13,5.33,6.13,5.33s-.59,1.71-3.46.43c0,0,3.33,4.15,2.8,6.31s-4.21,4.17-5.14,5.14a1.06,1.06,0,0,1-1.7-.05s-6.8,4.65-11.4,3.52" style="fill:#fff;stroke:#263238;stroke-linecap:round;stroke-linejoin:round"></path><path d="M287.18,162.37l39.66,8.9v1.19l-40.26-8A1.82,1.82,0,0,1,287.18,162.37Z" style="fill:#757575;stroke:#263238;stroke-linecap:round;stroke-linejoin:round"></path><path d="M334.51,169.22c-.11.29-1.4,3.51-3.55,4.44-1.15.51-2.54.36-4.12-1.2v-1.19a3.58,3.58,0,0,1,3.28-1.12h0a2.55,2.55,0,0,1,.56.17A3.42,3.42,0,0,0,334.51,169.22Z" style="fill:#263238"></path><path d="M334.51,169.22c-.11.29-1.4,3.51-3.55,4.44.27-.69.63-1.68.46-1.78s-1.19-.11-1.72-.32.61-1.37.43-1.41a2.55,2.55,0,0,1,.56.17A3.42,3.42,0,0,0,334.51,169.22Z" style="fill:#FFC100"></path><path d="M334.51,169.22c-.11.29-1.4,3.51-3.55,4.44.27-.69.63-1.68.46-1.78s-1.19-.11-1.72-.32.61-1.37.43-1.41a2.55,2.55,0,0,1,.56.17A3.42,3.42,0,0,0,334.51,169.22Z" style="fill:#263238;opacity:0.2"></path><path d="M288.74,178.13s7.19-.59,8.51-5.08a8.62,8.62,0,0,1,2-3s6.53.69,6.53-2L297.25,166a15.15,15.15,0,0,0-8.51,5.15" style="fill:#fff;stroke:#263238;stroke-linecap:round;stroke-linejoin:round"></path><path d="M301,178.13a2.83,2.83,0,0,1,0-1.91s-1.85-.64-1.37-2.3c0,0-2.77-.79-.43-3.83" style="fill:none;stroke:#263238;stroke-linecap:round;stroke-linejoin:round"></path><path d="M299.67,173.92s4.23-2.22,4.86-3.44" style="fill:none;stroke:#263238;stroke-linecap:round;stroke-linejoin:round"></path><path d="M301,176.22s4.43-1.83,4.73-3.26" style="fill:none;stroke:#263238;stroke-linecap:round;stroke-linejoin:round"></path><path d="M302.1,163.4a5.12,5.12,0,0,0,2.74,2.94" style="fill:none;stroke:#263238;stroke-linecap:round;stroke-linejoin:round"></path><path d="M302.6,164.4a11.44,11.44,0,0,0-2.1,1" style="fill:none;stroke:#263238;stroke-linecap:round;stroke-linejoin:round"></path><path d="M62.45,156.69c-4.15-7.64-2.2-28.76,16.22-31.54,25.32-3.83,15.4,14.93,31.72,18.49s12.51,26-9.57,28.82C83.81,174.66,69.37,169.45,62.45,156.69Z" style="fill:#757575;stroke:#263238;stroke-linecap:round;stroke-linejoin:round"></path><path d="M107.35,147.74s-2-2.28-3.56-2.64-6.33,1.24-6.33,1.24.2,2.36,3.36,2.45,1.59,1.68,1.59,1.68S106.67,152.53,107.35,147.74Z" style="fill:#fff;stroke:#263238;stroke-linecap:round;stroke-linejoin:round"></path><path d="M90.53,130.3c-2-4.15-6.39-2.86-8.1-1.31-3.17,2.86-1.58,5.65,0,4.89S92.52,134.44,90.53,130.3Z" style="fill:#FFC100"></path><path d="M71.08,144.17a5.25,5.25,0,0,0,1.07.51A3.13,3.13,0,0,0,76,142.37a7.23,7.23,0,0,1,.15-.81,6.18,6.18,0,0,1,.71-1.21,1.28,1.28,0,0,0,.1-1.34c-.46-.67-1.6-.29-2.26-.76-.5-.35-.59-1.06-1-1.53-.6-.73-1.7-.69-2.64-.6-.32,0-.72.14-.79.45s0,.35,0,.52c-.08.38-.58.43-1,.5-1.53.26-2.28,2.1-1.89,3.51S69.88,143.48,71.08,144.17Z" style="fill:#FFC100"></path><path d="M77.4,155.35c-.48-.82-.26-1.9-.71-2.74-.58-1.08-2-1.35-3.19-1.47-1.5-.15-3-.25-4.51-.32a.38.38,0,0,0-.26.05c-.12.08-.11.26-.11.4a6,6,0,0,1-.67,2.09c-.62,1.67,1.3,3.75,2.41,4.88a5.18,5.18,0,0,0,3,1.6c1.64.17,3.19-.71,4.6-1.56a1.69,1.69,0,0,0,.54-.45,1.24,1.24,0,0,0-.21-1.36A12.27,12.27,0,0,1,77.4,155.35Z" style="fill:#FFC100"></path><path d="M88.57,159.77c-1.33-.66-2.92-.17-4.31.33a1.46,1.46,0,0,0-.91.62c-.24.49.12.92.11,1.39,0,.78-.35.63-.59,1.25A1.7,1.7,0,0,0,84,165.53c2,1,4.05,2.87,6.2,1.08a3.24,3.24,0,0,0,1-2.8A5.6,5.6,0,0,0,90,161,4.19,4.19,0,0,0,88.57,159.77Z" style="fill:#FFC100"></path><path d="M109,161a.92.92,0,0,0-.35-.38,1.07,1.07,0,0,0-.56-.09,10.3,10.3,0,0,1-3.09-.14c-.56-.18-1.07-.49-1.62-.71a2.44,2.44,0,0,0-1.72-.15c-1.11.41-.54,1-.52,1.75,0,1.06-.89,1.9-.84,3a2.28,2.28,0,0,0,1.72,1.92,6.65,6.65,0,0,0,2.74.05,5.19,5.19,0,0,0,2-.49,4.58,4.58,0,0,0,1.08-.89,5.81,5.81,0,0,0,1.24-1.75A2.46,2.46,0,0,0,109,161Z" style="fill:#FFC100"></path></g></svg>
